%TF.GenerationSoftware,KiCad,Pcbnew,(6.0.10)*%
%TF.CreationDate,2023-02-16T14:21:37-08:00*%
%TF.ProjectId,project1_2,70726f6a-6563-4743-915f-322e6b696361,rev?*%
%TF.SameCoordinates,Original*%
%TF.FileFunction,Copper,L2,Bot*%
%TF.FilePolarity,Positive*%
%FSLAX46Y46*%
G04 Gerber Fmt 4.6, Leading zero omitted, Abs format (unit mm)*
G04 Created by KiCad (PCBNEW (6.0.10)) date 2023-02-16 14:21:37*
%MOMM*%
%LPD*%
G01*
G04 APERTURE LIST*
%TA.AperFunction,ComponentPad*%
%ADD10R,3.000000X3.000000*%
%TD*%
%TA.AperFunction,ComponentPad*%
%ADD11C,3.000000*%
%TD*%
%TA.AperFunction,ViaPad*%
%ADD12C,0.800000*%
%TD*%
%TA.AperFunction,Conductor*%
%ADD13C,0.250000*%
%TD*%
G04 APERTURE END LIST*
D10*
%TO.P,J1,1,Pin_1*%
%TO.N,+9V*%
X147320000Y-45720000D03*
D11*
%TO.P,J1,2,Pin_2*%
%TO.N,GND*%
X152400000Y-45720000D03*
%TD*%
D12*
%TO.N,Net-(C1-Pad1)*%
X142240000Y-76200000D03*
X124460000Y-86360000D03*
X142240000Y-76200000D03*
%TO.N,Net-(C2-Pad1)*%
X137160000Y-83820000D03*
X139700000Y-73660000D03*
%TO.N,+9V*%
X147320000Y-55880000D03*
X139700000Y-86360000D03*
X142240000Y-83820000D03*
X139700000Y-86360000D03*
X172720000Y-76200000D03*
%TO.N,Net-(R1-Pad2)*%
X139700000Y-78740000D03*
X139700000Y-78740000D03*
X124460000Y-81280000D03*
%TD*%
D13*
%TO.N,Net-(C1-Pad1)*%
X142240000Y-79765305D02*
X135645305Y-86360000D01*
X142240000Y-76200000D02*
X142240000Y-79765305D01*
X135645305Y-86360000D02*
X124460000Y-86360000D01*
%TO.N,Net-(C2-Pad1)*%
X137160000Y-76200000D02*
X139700000Y-73660000D01*
X137160000Y-83820000D02*
X137160000Y-76200000D01*
%TO.N,+9V*%
X147320000Y-78740000D02*
X142240000Y-83820000D01*
X157480000Y-91440000D02*
X149860000Y-91440000D01*
X172720000Y-76200000D02*
X157480000Y-91440000D01*
X144780000Y-91440000D02*
X139700000Y-86360000D01*
X147320000Y-55880000D02*
X147320000Y-78740000D01*
X149860000Y-91440000D02*
X144780000Y-91440000D01*
%TO.N,Net-(R1-Pad2)*%
X140425000Y-73359695D02*
X140000305Y-72935000D01*
X140000305Y-72935000D02*
X132805000Y-72935000D01*
X139700000Y-78740000D02*
X140425000Y-78015000D01*
X132805000Y-72935000D02*
X124460000Y-81280000D01*
X140425000Y-78015000D02*
X140425000Y-73359695D01*
%TD*%
M02*
